<svg version="1.0" xmlns="http://www.w3.org/2000/svg" width="714.000000pt" height="80.000000pt" viewBox="0 0 714.000000 80.000000" preserveAspectRatio="xMidYMid meet">

<g transform="translate(0.000000,80.000000) scale(0.100000,-0.100000)" fill="#351330" stroke="none">
<path d="M330 680 c-58 -4 -98 -13 -127 -28 -149 -78 -208 -257 -133 -408 33 -68 77 -110 150 -146 41 -20 63 -23 263 -26 l217 -4 0 101 0 101 -30 0 -30 0 0 -70 0 -70 -150 0 c-174 0 -234 10 -289 51 -63 45 -94 100 -99 174 -7 111 41 199 131 241 49 22 63 24 230 24 l177 0 0 -35 0 -35 -159 0 c-170 0 -209 -7 -255 -49 -80 -73 -70 -200 21 -261 34 -23 47 -25 175 -28 l138 -4 0 31 0 31 -115 0 c-139 0 -177 12 -202 65 -15 32 -16 40 -3 77 25 70 52 78 272 78 l188 0 0 100 0 100 -142 -2 c-79 0 -181 -4 -228 -8z" fill="#44aaf7"/>
<path d="M1236 668 c-29 -47 -327 -568 -332 -583 -5 -13 10 -15 107 -15 l114 0 115 201 c64 111 120 201 125 200 6 -1 54 -77 108 -169 l97 -167 -36 -3 c-19 -2 -42 2 -49 8 -8 6 -38 54 -67 105 l-53 94 -18 -29 -19 -30 59 -102 59 -103 116 -3 117 -3 -155 268 c-85 147 -156 269 -158 270 -2 2 -66 -104 -142 -237 l-138 -240 -38 0 c-21 0 -38 4 -38 9 0 8 125 230 287 509 l25 42 -36 0 c-26 0 -39 -6 -50 -22z" fill="#44aaf7"/>
<path d="M2044 681 c-90 -23 -139 -89 -132 -177 5 -58 25 -93 72 -128 25 -19 45 -21 244 -26 230 -5 247 -9 273 -57 17 -32 13 -82 -9 -112 -33 -45 -78 -53 -288 -49 -172 3 -194 5 -213 22 -12 11 -21 27 -21 38 0 17 13 18 224 18 234 0 255 4 240 44 -5 14 -35 16 -265 16 l-259 0 0 -54 c0 -39 6 -62 23 -87 36 -54 71 -61 312 -57 189 3 213 5 244 23 93 55 113 173 45 255 -45 53 -54 55 -287 60 l-219 5 -29 33 c-43 48 -37 112 15 154 18 15 48 18 242 18 201 0 222 -2 237 -18 10 -10 17 -26 17 -35 0 -15 -21 -17 -214 -17 -118 0 -221 -3 -230 -6 -9 -3 -16 -17 -16 -30 l0 -24 266 0 267 0 -6 56 c-6 62 -24 95 -64 121 -23 16 -55 18 -233 20 -113 1 -219 -2 -236 -6z" fill="#44aaf7"/>
<path d="M2800 555 l0 -135 30 0 30 0 0 100 0 100 40 0 40 0 0 -100 0 -100 195 0 195 0 0 100 0 100 40 0 40 0 0 -246 0 -245 -37 3 -38 3 -3 103 -3 102 -264 0 -265 0 0 -135 0 -135 100 0 100 0 0 65 0 65 -30 0 c-28 0 -30 -3 -30 -36 0 -35 -1 -35 -37 -32 l-38 3 0 70 0 70 203 3 202 2 0 -105 0 -105 100 0 100 0 0 310 0 310 -100 0 -100 0 0 -105 0 -105 -135 0 -135 0 0 105 0 105 -100 0 -100 0 0 -135z" fill="#44aaf7"/>
<path d="M3700 655 l0 -35 208 0 c196 0 210 -1 257 -24 89 -41 135 -114 135 -214 0 -115 -81 -218 -190 -241 -28 -6 -118 -11 -200 -11 l-150 0 0 180 0 180 156 0 c174 0 213 -10 239 -61 19 -36 19 -63 -1 -100 -22 -43 -68 -59 -169 -59 l-85 0 0 75 0 75 -30 0 -30 0 0 -105 0 -105 128 0 c115 0 133 2 172 23 73 38 108 129 79 204 -15 42 -68 92 -109 103 -19 5 -119 10 -222 10 l-188 0 0 -240 0 -240 188 0 c212 0 276 11 348 60 153 106 170 336 35 468 -80 78 -141 92 -392 92 l-179 0 0 -35z" fill="#44aaf7"/>
<path d="M4645 413 c-88 -153 -168 -293 -178 -311 l-19 -33 117 3 117 3 116 203 c64 111 119 202 122 202 6 0 200 -334 200 -344 0 -3 -18 -6 -40 -6 -39 0 -39 0 -96 97 -32 54 -59 100 -61 102 -5 7 -32 -33 -33 -48 0 -8 26 -58 57 -113 l57 -98 114 0 c62 0 111 3 109 8 -39 73 -293 510 -301 519 -8 8 -46 -50 -146 -225 l-136 -237 -42 -3 c-23 -2 -42 -1 -42 3 0 3 70 126 155 274 85 148 155 271 155 275 0 3 -15 6 -33 6 -34 0 -34 -1 -192 -277z" fill="#44aaf7"/>
<path d="M5595 681 c-47 -12 -72 -28 -102 -67 -57 -76 -26 -207 60 -247 29 -14 69 -17 226 -17 214 0 249 -7 275 -59 20 -38 20 -66 0 -100 -31 -53 -45 -56 -249 -59 -211 -4 -255 3 -273 43 -7 14 -12 28 -12 30 0 3 105 6 233 7 l232 3 0 25 0 25 -264 3 -264 2 5 -55 c5 -64 29 -102 79 -127 29 -15 63 -18 229 -18 111 0 212 5 235 11 52 15 111 74 120 122 15 78 -19 153 -84 187 -36 18 -59 20 -236 20 -222 0 -246 6 -271 67 -19 43 -5 93 33 123 24 19 40 20 244 20 206 0 220 -1 239 -20 11 -11 20 -27 20 -35 0 -13 -32 -15 -224 -15 -186 0 -226 -3 -236 -15 -7 -8 -10 -22 -6 -30 5 -13 43 -15 266 -15 l260 0 0 46 c0 59 -22 105 -63 129 -29 18 -53 20 -237 22 -113 1 -218 -2 -235 -6z" fill="#44aaf7"/>
<path d="M6360 555 l0 -135 30 0 30 0 0 100 0 100 40 0 40 0 0 -100 0 -100 195 0 195 0 0 100 0 100 35 0 35 0 0 -245 0 -245 -35 0 -35 0 0 105 0 105 -265 0 -265 0 0 -135 0 -135 100 0 100 0 0 65 0 65 -29 0 c-26 0 -30 -4 -33 -32 -3 -30 -6 -33 -40 -36 l-38 -3 0 75 0 76 205 0 205 0 0 -105 0 -105 100 0 100 0 0 310 0 310 -100 0 -100 0 0 -105 0 -105 -135 0 -135 0 0 105 0 105 -100 0 -100 0 0 -135z" fill="#44aaf7"/>
</g>
</svg>