<svg xmlns="http://www.w3.org/2000/svg" width="800" height="800" class="icon" transform="rotate(180)" viewBox="0 0 1024 1024"><path fill="#1ca538" d="M349.196 510.453c-14.694 6.96-17.788 33.257-29.39 42.538 38.671-30.163 72.702 21.656 98.224-43.311l-27.843-10.055c-11.6-1.546-26.296-1.546-40.99 10.828zm46.405-28.616c6.188-58.006-28.616-61.873-53.365-103.638 17.788 37.124 3.093 48.725 16.241 76.568 13.148 27.843 37.124 27.07 37.124 27.07zm4.64-40.991c12.375 27.07 25.523 38.67 25.523 38.67 3.094-26.295 27.843-47.951 30.937-74.247.773-23.976-19.335-73.474-19.335-73.474s-49.499 81.981-37.124 109.05zm-9.28-256.773c20.108 35.577 17.788 137.667 85.075 109.824l2.32-.773c-13.148-14.695-11.6-32.484-18.561-50.272-15.469-35.577-34.804-38.67-68.834-58.78zM491.505 71.927c-6.188 43.312-51.046 90.49-40.991 124.52 9.28 34.03 33.256 54.913 33.256 54.913-1.546-36.35 37.124-57.233 36.35-91.263.774-28.617-27.069-56.46-28.615-88.17zm13.148 197.221s23.202 14.695 54.139-6.96 28.616-68.061 32.483-116.786c-13.148 47.951-119.88 51.819-86.622 123.746zm45.631 110.598c13.921 34.804 12.375 47.178 27.843 18.562 15.468-28.616 13.921-68.834-10.828-112.918-.773 45.631-30.163 59.553-17.015 94.356zm98.224 0c36.35-16.241 71.927-33.257 71.927-123.746-9.28 62.647-94.356 64.967-115.239 127.613 0 0 6.961 12.375 43.312-3.867zm33.256 23.976c-34.03-11.601-68.06 23.976-68.06 23.976s42.538 53.365 78.888 37.124c30.163-13.148 25.523-47.952 32.484-71.928-.774 0-9.281 22.43-43.312 10.828z"/><path fill="#65320b" d="M459.021 979.915c-37.897-71.927 26.296-162.417 40.218-232.024 17.015-94.356-13.148-177.885-78.115-243.625 13.921 14.695 60.326 50.272 81.982 24.75 10.054-11.602 5.414-34.031 1.547-46.406-21.656-73.474-15.469-208.821-12.375-207.275 3.094 1.547 4.64 92.81 10.054 126.84 3.867 17.015 14.695 66.514 30.937 68.834 16.242 3.094 48.725-54.139 68.06-63.42-20.882 54.913-54.912 95.903-57.232 156.23.773 48.725 18.562 92.81 19.335 139.214 2.32 87.396-20.882 208.049 17.015 292.35-25.523-17.788-92.036-14.694-118.332-3.093l-3.094-12.375z"/></svg>